<?xml version="1.0" standalone="no"?>
<!DOCTYPE svg PUBLIC "-//W3C//DTD SVG 20010904//EN"
 "http://www.w3.org/TR/2001/REC-SVG-20010904/DTD/svg10.dtd">
<svg version="1.0" xmlns="http://www.w3.org/2000/svg"
 width="484.000000pt" height="484.000000pt" viewBox="0 0 484.000000 484.000000"
 preserveAspectRatio="xMidYMid meet">
<metadata>
Created by potrace 1.11, written by Peter Selinger 2001-2013
</metadata>
<g transform="translate(0.000000,484.000000) scale(0.100000,-0.100000)"
fill="#000000" stroke="none">
<path d="M2621 4816 c-19 -14 -50 -31 -70 -37 -20 -6 -45 -17 -56 -24 -11 -6
-51 -22 -88 -35 -38 -12 -83 -34 -100 -49 -63 -53 -137 -101 -198 -127 -79
-33 -121 -64 -145 -109 -13 -25 -38 -45 -86 -70 -47 -25 -86 -56 -130 -105
-34 -39 -69 -70 -78 -70 -8 0 -27 -6 -41 -14 -14 -7 -42 -16 -61 -20 -39 -7
-52 -19 -77 -68 -14 -28 -26 -35 -91 -54 -103 -29 -166 -45 -224 -56 -27 -5
-58 -15 -70 -23 -12 -7 -51 -18 -88 -24 -90 -15 -220 -66 -252 -98 -30 -29
-30 -31 -31 -137 l0 -79 -68 -27 c-37 -16 -78 -31 -92 -34 -13 -3 -63 -31
-111 -61 -49 -30 -95 -55 -103 -55 -25 0 -151 -132 -151 -158 0 -5 -18 -32
-40 -60 l-40 -50 0 -150 0 -150 43 -74 c23 -40 58 -104 77 -141 18 -38 46 -79
62 -92 63 -53 262 -70 436 -36 190 37 223 42 231 37 4 -3 11 -47 15 -98 3 -51
13 -111 21 -133 7 -22 19 -73 26 -114 7 -47 24 -98 45 -139 20 -39 34 -79 34
-101 0 -35 17 -142 39 -246 40 -185 51 -260 51 -340 0 -74 6 -105 31 -175 19
-55 33 -118 39 -180 4 -52 10 -102 13 -110 3 -8 8 -45 11 -82 l6 -66 -67 -25
c-38 -14 -105 -37 -151 -51 -45 -14 -102 -35 -127 -46 -24 -11 -57 -20 -73
-20 -16 0 -43 -7 -58 -15 -16 -8 -37 -15 -47 -15 -10 0 -33 -6 -52 -14 -27
-11 -36 -23 -45 -54 -34 -129 79 -252 260 -281 162 -26 214 -11 336 100 42 38
80 69 85 69 5 0 9 -8 9 -18 0 -21 32 -53 75 -75 44 -22 238 -83 325 -102 41
-9 138 -36 215 -60 192 -59 298 -70 687 -70 312 0 317 0 347 23 37 27 42 27
89 3 20 -10 64 -22 97 -26 33 -3 90 -15 126 -25 59 -18 83 -19 235 -12 164 8
173 10 240 41 38 18 100 44 138 58 153 56 305 168 392 292 34 47 97 125 141
174 43 48 91 111 105 140 15 28 45 124 68 212 35 134 42 182 47 293 4 90 2
132 -5 132 -6 0 -12 -5 -14 -11 -2 -6 -22 -18 -43 -27 -79 -33 -399 -16 -422
22 -4 5 -12 41 -19 79 l-11 69 76 -3 c49 -2 83 1 96 9 11 7 40 23 64 35 64 31
84 63 83 131 -1 78 -20 164 -43 187 -28 28 -82 24 -226 -17 -96 -28 -130 -34
-147 -26 -23 11 -237 188 -248 206 -4 6 -8 50 -8 97 l0 87 45 21 c35 16 64 21
133 21 152 0 284 45 383 130 69 59 82 93 87 242 4 123 4 129 -22 182 -36 74
-66 96 -129 96 -27 0 -77 4 -111 10 -33 5 -132 13 -218 16 -134 5 -158 8 -158
22 0 8 -6 23 -14 31 -23 27 -36 82 -36 152 0 37 -5 92 -11 121 -10 48 -19 60
-87 125 -82 78 -118 93 -225 93 -29 0 -69 5 -91 11 l-39 11 6 61 c7 71 26 127
43 127 45 0 74 -14 83 -41 14 -41 48 -46 107 -16 27 13 67 30 89 37 52 17 111
54 129 82 24 37 29 99 16 198 -13 99 -65 260 -102 319 -13 20 -30 49 -38 66
-9 16 -28 35 -43 42 -15 7 -39 19 -54 26 -21 9 -32 29 -53 93 -39 114 -119
235 -183 276 l-51 33 -321 3 -320 3 -34 -25z m-1450 -1665 c36 -18 76 -42 90
-53 l24 -19 -70 4 c-38 2 -115 14 -170 26 -55 12 -131 27 -170 34 -54 9 -71
16 -73 30 -4 17 6 18 150 15 152 -3 154 -3 219 -37z m2564 -498 c44 -17 100
-37 124 -43 l44 -12 -29 -24 c-16 -13 -33 -23 -39 -24 -14 0 -52 -58 -69 -106
-22 -63 -36 -173 -36 -280 0 -120 19 -167 88 -218 26 -19 67 -55 90 -79 l44
-44 -47 -8 c-63 -9 -148 -47 -275 -122 -91 -53 -241 -136 -398 -219 l-44 -23
18 27 c9 15 28 43 41 63 13 20 26 54 29 75 3 21 12 63 21 93 25 85 14 206 -27
305 -18 44 -45 92 -59 107 -14 15 -64 44 -111 64 -71 31 -100 38 -177 42 -51
3 -93 8 -93 11 0 14 97 184 137 239 97 136 311 214 578 210 98 -2 119 -6 190
-34z m45 -1003 c-8 -5 -19 -10 -25 -10 -5 0 -3 5 5 10 8 5 20 10 25 10 6 0 3
-5 -5 -10z m326 -240 c19 -79 40 -103 113 -131 46 -18 84 -23 220 -27 l164 -5
-7 -56 c-3 -31 -20 -103 -36 -161 -17 -58 -35 -122 -41 -143 -13 -53 -51 -110
-129 -194 -37 -39 -94 -111 -127 -160 -51 -74 -127 -153 -147 -153 -3 0 -37
-20 -74 -44 -38 -24 -100 -55 -138 -69 -38 -14 -98 -39 -134 -56 -64 -30 -68
-31 -218 -31 -114 0 -166 4 -203 16 -58 19 -58 19 37 98 67 56 159 183 188
259 10 26 29 60 41 76 42 49 62 118 68 234 l5 109 -40 79 c-22 43 -59 97 -82
119 -22 22 -36 40 -29 40 6 0 41 20 76 44 36 25 85 50 109 56 23 7 52 16 63
20 11 5 50 18 88 30 57 18 79 33 140 91 65 63 72 67 75 47 2 -13 10 -52 18
-88z m-613 -339 c39 -51 67 -134 67 -200 0 -73 -90 -278 -146 -332 l-34 -33 0
95 c0 68 7 121 26 194 38 151 46 204 39 268 -3 31 -2 57 2 57 5 0 26 -22 46
-49z"/>
</g>
</svg>
